# xmcd
#
# Track frame offsets:
# 150
# 16079
# 37608
# 52779
# 74735
# 92304
# 113812
# 118800
# 137317
# 154056
# 158234
# 177881
# 191925
# 207053
# 226603
# 231741
# 250658
# 272295
# 280365
#
# Disc length: 3914 seconds
#
#
# Revision: 0
# Processed by: cddbd v1.5.1PL0 Copyright (c) Steve Scherf et al.
# Submitted via: FreeRIP 2.91 
#
DISCID=f20f4813
DTITLE=Megaloh - Im Game
DYEAR=2005
DGENRE=Rap
TTITLE0=Intro/Skit
TTITLE1=Nicht wie ihr
TTITLE2=Chefsache
TTITLE3=Wir gehen um´
TTITLE4=Draufgänger feat. Jasmin Shakeri
TTITLE5=Kopf runta feat. Battle Cat
TTITLE6=Skit
TTITLE7=Pump Das
TTITLE8=Moabit lebt
TTITLE9=Skit
TTITLE10=Vorsicht
TTITLE11=Nach oben feat. Black Lion and KD Supier
TTITLE12=Ruf
TTITLE13=Fick nicht mit den Kingz feat. Battle Rapp
TTITLE14=Skit
TTITLE15=Game Junge
TTITLE16=Wie verdient 2 feat. Mr. Lex
TTITLE17=Skit
TTITLE18=Outro feat. Frizzle
EXTD=
EXTT0=
EXTT1=
EXTT2=
EXTT3=
EXTT4=
EXTT5=
EXTT6=
EXTT7=
EXTT8=
EXTT9=
EXTT10=
EXTT11=
EXTT12=
EXTT13=
EXTT14=
EXTT15=
EXTT16=
EXTT17=
EXTT18=
PLAYORDER=
